<svg width="45" height="45" viewBox="0 0 45 45" fill="none" xmlns="http://www.w3.org/2000/svg">
<circle cx="22.5" cy="22.5" r="22.5" fill="url(#paint0_linear_123_5190)"/>
<path d="M23.4375 17.4062C23.4375 16.6296 22.8079 16 22.0312 16C21.2546 16 20.625 16.6296 20.625 17.4062V21.625H16.4062C15.6296 21.625 15 22.2546 15 23.0312C15 23.8079 15.6296 24.4375 16.4062 24.4375H20.625V28.6562C20.625 29.4329 21.2546 30.0625 22.0312 30.0625C22.8079 30.0625 23.4375 29.4329 23.4375 28.6562V24.4375H27.6562C28.4329 24.4375 29.0625 23.8079 29.0625 23.0312C29.0625 22.2546 28.4329 21.625 27.6562 21.625H23.4375V17.4062Z" fill="white"/>
<defs>
<linearGradient id="paint0_linear_123_5190" x1="22.5" y1="0" x2="22.5" y2="45" gradientUnits="userSpaceOnUse">
<stop stop-color="#F5DCFA"/>
<stop offset="1" stop-color="#A788F0"/>
</linearGradient>
</defs>
</svg>
