<svg width="25" height="25" viewBox="0 0 25 25" fill="none" xmlns="http://www.w3.org/2000/svg">
<path fill-rule="evenodd" clip-rule="evenodd" d="M7.77894 2.34375H7.84607C8.30418 2.34373 8.69934 2.34372 9.0236 2.37311C9.36649 2.40419 9.70603 2.47299 10.026 2.65775C10.3823 2.86346 10.6782 3.15933 10.884 3.51563C11.0686 3.83564 11.1375 4.17518 11.1685 4.51807C11.1979 4.84234 11.1979 5.2375 11.1979 5.69563V15.1377C11.1979 15.5958 11.1979 15.991 11.1685 16.3153C11.1375 16.6581 11.0686 16.9977 10.884 17.3177C10.6782 17.674 10.3823 17.9699 10.026 18.1756C9.70603 18.3603 9.36649 18.4292 9.0236 18.4602C8.69932 18.4896 8.30417 18.4896 7.84605 18.4896H7.77895C7.32084 18.4896 6.92568 18.4896 6.60141 18.4602C6.25851 18.4292 5.91897 18.3603 5.59896 18.1756C5.24267 17.9699 4.94679 17.674 4.74109 17.3177C4.55632 16.9977 4.48752 16.6581 4.45644 16.3153C4.42705 15.991 4.42706 15.5958 4.42709 15.1377V5.72917C4.42709 5.71794 4.42709 5.70675 4.42709 5.69561C4.42706 5.23749 4.42705 4.84233 4.45644 4.51807C4.48752 4.17518 4.55632 3.83564 4.74109 3.51563C4.94679 3.15933 5.24267 2.86346 5.59896 2.65775C5.91897 2.473 6.25851 2.40419 6.60141 2.37311C6.92567 2.34372 7.32082 2.34373 7.77894 2.34375ZM6.74244 3.92923C6.50792 3.95049 6.42277 3.98635 6.38021 4.01092C6.26144 4.07949 6.16282 4.17812 6.09425 4.29688C6.06968 4.33945 6.03381 4.42458 6.01256 4.65912C5.99033 4.90438 5.98958 5.22801 5.98958 5.72917V15.1042C5.98958 15.6053 5.99033 15.929 6.01256 16.1743C6.03381 16.4088 6.06968 16.4939 6.09425 16.5365C6.16282 16.6552 6.26144 16.7539 6.38021 16.8224C6.42277 16.847 6.50792 16.8828 6.74244 16.9041C6.98771 16.9264 7.31135 16.9271 7.8125 16.9271C8.31366 16.9271 8.63729 16.9264 8.88255 16.9041C9.11708 16.8828 9.20223 16.847 9.24479 16.8224C9.36355 16.7539 9.46218 16.6552 9.53075 16.5365C9.55532 16.4939 9.59119 16.4088 9.61244 16.1743C9.63467 15.929 9.63542 15.6053 9.63542 15.1042V5.72917C9.63542 5.22801 9.63467 4.90438 9.61244 4.65912C9.59118 4.42458 9.55532 4.33944 9.53075 4.29688C9.46218 4.17812 9.36355 4.07949 9.24479 4.01092C9.20223 3.98635 9.11708 3.95049 8.88255 3.92923C8.63729 3.907 8.31366 3.90625 7.8125 3.90625C7.31135 3.90625 6.98771 3.907 6.74244 3.92923ZM17.154 5.46875H17.221C17.6792 5.46873 18.0744 5.46872 18.3986 5.49811C18.7415 5.52919 19.081 5.59799 19.401 5.78275C19.7573 5.98846 20.0532 6.28433 20.259 6.64063C20.4436 6.96064 20.5125 7.30018 20.5435 7.64307C20.5729 7.96733 20.5729 8.36247 20.5729 8.82057V15.1377C20.5729 15.5958 20.5729 15.991 20.5435 16.3153C20.5125 16.6581 20.4436 16.9977 20.259 17.3177C20.0532 17.674 19.7573 17.9699 19.401 18.1756C19.081 18.3603 18.7415 18.4292 18.3986 18.4602C18.0744 18.4896 17.6792 18.4896 17.221 18.4896H17.154C16.6958 18.4896 16.3006 18.4896 15.9764 18.4602C15.6335 18.4292 15.294 18.3603 14.974 18.1756C14.6177 17.9699 14.3218 17.674 14.116 17.3177C13.9314 16.9977 13.8625 16.6581 13.8315 16.3153C13.8021 15.991 13.8021 15.5958 13.8021 15.1377V8.82058C13.8021 8.36248 13.8021 7.96733 13.8315 7.64307C13.8625 7.30018 13.9314 6.96065 14.116 6.64063C14.3218 6.28433 14.6177 5.98846 14.974 5.78275C15.294 5.598 15.6335 5.52919 15.9764 5.49811C16.3006 5.46872 16.6958 5.46873 17.154 5.46875ZM16.1174 7.05423C15.8829 7.07549 15.7978 7.11135 15.7552 7.13592C15.6365 7.20449 15.5378 7.30312 15.4693 7.42188C15.4447 7.46444 15.4089 7.54958 15.3876 7.78412C15.3653 8.02938 15.3646 8.35301 15.3646 8.85417V15.1042C15.3646 15.6053 15.3653 15.929 15.3876 16.1743C15.4089 16.4088 15.4447 16.4939 15.4693 16.5365C15.5378 16.6552 15.6365 16.7539 15.7552 16.8224C15.7978 16.847 15.8829 16.8828 16.1174 16.9041C16.3627 16.9264 16.6864 16.9271 17.1875 16.9271C17.6886 16.9271 18.0123 16.9264 18.2576 16.9041C18.4921 16.8828 18.5772 16.847 18.6198 16.8224C18.7385 16.7539 18.8372 16.6552 18.9057 16.5365C18.9303 16.4939 18.9661 16.4088 18.9874 16.1743C19.0097 15.929 19.0104 15.6053 19.0104 15.1042V8.85417C19.0104 8.35301 19.0097 8.02938 18.9874 7.78412C18.9661 7.54958 18.9303 7.46444 18.9057 7.42188C18.8372 7.30312 18.7385 7.20449 18.6198 7.13592C18.5772 7.11135 18.4921 7.07549 18.2576 7.05423C18.0123 7.032 17.6886 7.03125 17.1875 7.03125C16.6864 7.03125 16.3627 7.032 16.1174 7.05423ZM1.30209 21.875C1.30209 21.4435 1.65187 21.0938 2.08334 21.0938H22.9167C23.3481 21.0938 23.6979 21.4435 23.6979 21.875C23.6979 22.3065 23.3481 22.6563 22.9167 22.6563H2.08334C1.65187 22.6563 1.30209 22.3065 1.30209 21.875Z" fill="#A19D96"/>
</svg>
