<svg width="26" height="26" viewBox="0 0 26 26" fill="none" xmlns="http://www.w3.org/2000/svg">
<path d="M4.13638 4.13634C4.46272 4.13634 4.72728 3.87179 4.72728 3.54545C4.72728 3.21911 4.46272 2.95456 4.13638 2.95456C3.81004 2.95456 3.54549 3.21911 3.54549 3.54545C3.54549 3.87179 3.81004 4.13634 4.13638 4.13634Z" fill="black"/>
<path d="M6.5 4.13634C6.82634 4.13634 7.09089 3.87179 7.09089 3.54545C7.09089 3.21911 6.82634 2.95456 6.5 2.95456C6.17366 2.95456 5.90911 3.21911 5.90911 3.54545C5.90911 3.87179 6.17366 4.13634 6.5 4.13634Z" fill="black"/>
<path d="M23.0454 0H2.95455C1.95 0 1.18183 0.768168 1.18183 1.77272V5.31817C1.18183 6.32272 1.95 7.09089 2.95455 7.09089V8.27272C1.95 8.27272 1.18183 9.04089 1.18183 10.0454C1.18183 11.05 1.95 11.8182 2.95455 11.8182H5.31817C6.08634 11.8182 6.73634 11.3454 6.97272 10.6363H10.4591L10.6364 11.3454C10.6955 11.5818 10.9318 11.8182 11.2273 11.8182H14.7727C15.0682 11.8182 15.3046 11.6409 15.3636 11.3454L15.8363 9.33634C16.6045 9.09995 17.1363 8.44995 17.1363 7.62272V6.44089C17.1363 6.08634 16.8999 5.85 16.5454 5.85H2.95455C2.6 5.85 2.36366 5.61361 2.36366 5.25911V1.77272C2.36366 1.41817 2.60005 1.18183 2.95455 1.18183H23.0454C23.4 1.18183 23.6363 1.41822 23.6363 1.77272V5.31817C23.6363 5.67272 23.3999 5.90906 23.0454 5.90906H18.9091C18.5545 5.90906 18.3182 6.14545 18.3182 6.49995C18.3182 6.85445 18.5546 7.09084 18.9091 7.09084H21.8636V19.5C21.8636 19.8546 22.1 20.0909 22.4545 20.0909C22.809 20.0909 23.0454 19.8545 23.0454 19.5V7.09089C24.0499 7.09089 24.8181 6.32272 24.8181 5.31817V1.77272C24.8182 0.768168 24.05 0 23.0454 0ZM14.3 10.6364H11.7L11.4046 9.45456H14.5954L14.3 10.6364ZM10.0454 7.09089H15.9546V7.68178C15.9546 8.03634 15.7182 8.27267 15.3637 8.27267H10.6364C10.2818 8.27267 10.0455 8.03629 10.0455 7.68178V7.09089H10.0454ZM4.72728 8.27272H4.13639V7.09089H8.86366V7.68178C8.86366 8.50906 9.3955 9.15906 10.1637 9.3954V9.4545H6.5C6.14544 9.4545 5.90911 9.69089 5.90911 10.0454C5.90911 10.3999 5.67272 10.6363 5.31822 10.6363H2.95455C2.6 10.6363 2.36366 10.3999 2.36366 10.0454C2.36366 9.69089 2.60005 9.4545 2.95455 9.4545H4.72728C5.08183 9.4545 5.31817 9.21812 5.31817 8.86361C5.31817 8.50911 5.08183 8.27272 4.72728 8.27272Z" fill="black"/>
<path d="M23.0454 21.2727H17.0182C17.0773 21.0954 17.1363 20.9182 17.1363 20.6818V18.9091H17.7272C18.7318 18.9091 19.4999 18.1409 19.4999 17.1364V14.7728C19.5 13.7682 18.7318 13 17.7273 13H16.5454C16.1909 13 15.9546 13.2364 15.9546 13.5909V15.9545C15.9546 16.3091 16.1909 16.5454 16.5454 16.5454C16.8999 16.5454 17.1363 16.309 17.1363 15.9545V14.1818H17.7272C18.0818 14.1818 18.3181 14.4182 18.3181 14.7727V17.1363C18.3181 17.4908 18.0817 17.7272 17.7272 17.7272H16.5454C16.1908 17.7272 15.9545 17.9636 15.9545 18.3181V20.6817C15.9545 21.0362 15.7181 21.2726 15.3636 21.2726H10.6363C10.2818 21.2726 10.0454 21.0362 10.0454 20.6817V14.1817H14.1818C14.5364 14.1817 14.7727 13.9453 14.7727 13.5908C14.7727 13.2363 14.5364 13 14.1818 13H9.45455C9.1 13 8.86366 13.2364 8.86366 13.5909V20.6818C8.86366 20.9182 8.92277 21.0954 8.98183 21.2727H5.90911C5.55455 21.2727 5.31822 21.5091 5.31822 21.8636C5.31822 22.2181 5.5546 22.4545 5.90911 22.4545H10.6364H15.3637H23.0455C23.4 22.4545 23.6364 22.6908 23.6364 23.0453V24.2272C23.6364 24.5817 23.4 24.8181 23.0455 24.8181H2.95455C2.6 24.8181 2.36366 24.5817 2.36366 24.2272V23.0453C2.36366 22.6908 2.60005 22.4545 2.95455 22.4545H3.54544C3.9 22.4545 4.13634 22.2181 4.13634 21.8636V13.5909C4.13634 13.2363 3.89995 13 3.54544 13C3.19094 13 2.95455 13.2364 2.95455 13.5909V21.2727C1.95 21.2727 1.18183 22.0409 1.18183 23.0454V24.2273C1.18183 25.2318 1.95 26 2.95455 26H23.0454C24.05 26 24.8182 25.2318 24.8182 24.2273V23.0454C24.8182 22.0409 24.05 21.2727 23.0454 21.2727Z" fill="black"/>
<path d="M19.5 2.95456H15.9546C15.6 2.95456 15.3637 3.19095 15.3637 3.54545C15.3637 3.89995 15.6001 4.13634 15.9546 4.13634H19.5C19.8546 4.13634 20.0909 3.89995 20.0909 3.54545C20.0909 3.19095 19.8546 2.95456 19.5 2.95456Z" fill="black"/>
</svg>
