<svg width="40" height="40" viewBox="0 0 40 40" fill="none" xmlns="http://www.w3.org/2000/svg">
<rect width="40" height="40" fill="white"/>
<path fill-rule="evenodd" clip-rule="evenodd" d="M33.3572 33.3572C35.4478 31.2666 36.5 27.4845 36.5 20C36.5 12.5155 35.4478 8.73338 33.3572 6.64277C31.2666 4.55215 27.4845 3.5 20 3.5C12.5155 3.5 8.73338 4.55215 6.64277 6.64277C4.55215 8.73338 3.5 12.5155 3.5 20C3.5 27.4845 4.55215 31.2666 6.64277 33.3572C8.73338 35.4478 12.5155 36.5 20 36.5C27.4845 36.5 31.2666 35.4478 33.3572 33.3572ZM20 39C35 39 39 35 39 20C39 5 35 1 20 1C5 1 1 5 1 20C1 35 5 39 20 39Z" fill="black"/>
</svg>
