<svg width="40" height="40" viewBox="0 0 40 40" fill="none" xmlns="http://www.w3.org/2000/svg">
<g clip-path="url(#clip0_146_3707)">
<rect width="40" height="40" fill="white"/>
<path fill-rule="evenodd" clip-rule="evenodd" d="M39.1755 2.93174L20.6477 26.3074L9.89635 14.627L12.1036 12.5953L20.4773 21.6926L36.8245 1.06826L39.1755 2.93174Z" fill="black"/>
<path fill-rule="evenodd" clip-rule="evenodd" d="M6.63388 6.63388C4.26996 8.9978 3.25 13.0262 3.25 20C3.25 26.9738 4.26996 31.0022 6.63388 33.3661C8.9978 35.73 13.0262 36.75 20 36.75C26.9871 36.75 30.7207 35.7239 32.8251 33.4092C34.965 31.0552 35.75 27.0296 35.75 20V15H38.25V20C38.25 26.9704 37.535 31.9448 34.6749 35.0908C31.7793 38.2761 27.0129 39.25 20 39.25C12.9738 39.25 8.0022 38.27 4.86612 35.1339C1.73004 31.9978 0.75 27.0262 0.75 20C0.75 12.9738 1.73004 8.0022 4.86612 4.86612C8.0022 1.73004 12.9738 0.75 20 0.75H26V3.25H20C13.0262 3.25 8.9978 4.26996 6.63388 6.63388Z" fill="black"/>
</g>
<defs>
<clipPath id="clip0_146_3707">
<rect width="40" height="40" fill="white"/>
</clipPath>
</defs>
</svg>
