<svg width="26" height="26" viewBox="0 0 26 26" fill="none" xmlns="http://www.w3.org/2000/svg">
<path d="M13.0012 5.74488C8.98511 5.74488 4.66379 4.8463 4.66379 2.87274C4.66379 0.899179 8.98511 0 13.0012 0C17.0173 0 21.338 0.899179 21.338 2.87274C21.338 4.8463 17.0167 5.74488 13.0012 5.74488ZM13.0012 1.22089C8.30569 1.22089 5.88467 2.38072 5.88467 2.87274C5.88467 3.36476 8.30569 4.52399 13.0012 4.52399C17.6967 4.52399 20.1172 3.36415 20.1172 2.87274C20.1172 2.38134 17.6961 1.22272 13.0012 1.22272V1.22089Z" fill="#333333"/>
<path d="M13.0012 26C10.1443 26 7.80206 25.2992 6.88823 24.1687L7.83686 23.4007C8.37405 24.0643 10.2176 24.7779 13.0012 24.7779C15.3819 24.7779 17.2804 24.2566 18.2138 23.3476L19.0684 24.2218C17.8909 25.3688 15.7354 26 13.0012 26Z" fill="#333333"/>
<path d="M7.38453 24.4147C7.23171 24.4153 7.08422 24.3586 6.9712 24.2557C6.85817 24.1529 6.78784 24.0114 6.77409 23.8592L4.94276 3.51067C4.92819 3.34942 4.97827 3.18898 5.08199 3.06465C5.18571 2.94033 5.33456 2.8623 5.49582 2.84772C5.65707 2.83315 5.8175 2.88324 5.94183 2.98696C6.06615 3.09068 6.14419 3.23954 6.15876 3.40079L7.99009 23.7493C7.99731 23.8292 7.98873 23.9096 7.96484 23.9862C7.94095 24.0627 7.90222 24.1338 7.85087 24.1953C7.79951 24.2569 7.73653 24.3077 7.66552 24.3449C7.59452 24.3822 7.51687 24.405 7.43703 24.4123C7.42115 24.4141 7.40284 24.4147 7.38453 24.4147Z" fill="#333333"/>
<path d="M18.6173 24.4147C18.599 24.4147 18.5807 24.4147 18.5617 24.4147C18.4819 24.4075 18.4043 24.3846 18.3333 24.3474C18.2622 24.3102 18.1993 24.2593 18.1479 24.1978C18.0965 24.1362 18.0578 24.0651 18.0339 23.9886C18.01 23.9121 18.0015 23.8316 18.0087 23.7517L19.84 3.40322C19.8546 3.24197 19.9326 3.09311 20.0569 2.98939C20.1813 2.88567 20.3417 2.83559 20.503 2.85017C20.6642 2.86474 20.8131 2.94277 20.9168 3.06709C21.0205 3.19142 21.0706 3.35185 21.056 3.51311L19.2247 23.8616C19.2104 24.0129 19.1403 24.1533 19.0279 24.2556C18.9156 24.3579 18.7692 24.4146 18.6173 24.4147Z" fill="#333333"/>
<path d="M15.1262 25.403H15.1085C14.9467 25.3984 14.7933 25.3296 14.6821 25.212C14.571 25.0943 14.5111 24.9373 14.5157 24.7755L14.8722 12.1081C14.8754 11.9868 14.9149 11.8692 14.9858 11.7706C15.031 11.7095 16.1194 10.2078 17.6913 10.0784C18.1424 10.0541 18.5932 10.1318 19.0101 10.3058C19.427 10.4798 19.7994 10.7455 20.0995 11.0832C20.2139 11.1978 20.2782 11.3531 20.2781 11.515C20.2781 11.6769 20.2137 11.8322 20.0992 11.9467C19.9846 12.0611 19.8293 12.1254 19.6674 12.1254C19.5054 12.1253 19.3501 12.0609 19.2357 11.9464C19.0587 11.737 18.8372 11.5699 18.5873 11.4572C18.3374 11.3445 18.0654 11.2891 17.7914 11.295C17.1147 11.4284 16.5091 11.8019 16.0864 12.3468L15.736 24.8102C15.7314 24.9689 15.6652 25.1196 15.5513 25.2303C15.4374 25.3409 15.285 25.4029 15.1262 25.403Z" fill="#333333"/>
<path d="M11.0112 25.403C10.8523 25.403 10.6996 25.3412 10.5857 25.2305C10.4717 25.1198 10.4053 24.969 10.4007 24.8102L10.0503 12.3462C9.62764 11.7993 9.01986 11.4255 8.34109 11.295C8.06777 11.2899 7.79673 11.3457 7.54765 11.4584C7.29857 11.571 7.0777 11.7377 6.90106 11.9464C6.78593 12.0576 6.63173 12.1191 6.47167 12.1177C6.31161 12.1163 6.15851 12.0521 6.04533 11.9389C5.93214 11.8257 5.86795 11.6726 5.86655 11.5126C5.86516 11.3525 5.9267 11.1983 6.03789 11.0832C6.33821 10.7458 6.7106 10.4803 7.12748 10.3063C7.54435 10.1324 7.99502 10.0545 8.44609 10.0784C10.0174 10.2078 11.1064 11.7065 11.1516 11.7706C11.2224 11.8692 11.262 11.9868 11.2651 12.1081L11.6216 24.7754C11.6262 24.9373 11.5664 25.0943 11.4552 25.212C11.344 25.3296 11.1907 25.3983 11.0289 25.403H11.0112Z" fill="#333333"/>
<path d="M10.6553 12.7357C10.531 12.7356 10.4097 12.6975 10.3077 12.6267C10.2056 12.5558 10.1276 12.4555 10.084 12.3391C10.0405 12.2227 10.0335 12.0958 10.0641 11.9753C10.0946 11.8549 10.1611 11.7466 10.2548 11.665C11.2737 10.7798 13.7411 9.64684 15.7885 11.6937C15.8468 11.75 15.8933 11.8173 15.9253 11.8918C15.9573 11.9663 15.9741 12.0464 15.9748 12.1274C15.9755 12.2085 15.9601 12.2889 15.9294 12.3639C15.8987 12.4389 15.8534 12.5071 15.7961 12.5644C15.7387 12.6217 15.6706 12.667 15.5956 12.6977C15.5205 12.7284 15.4402 12.7439 15.3591 12.7432C15.2781 12.7425 15.1979 12.7256 15.1235 12.6936C15.049 12.6616 14.9816 12.6151 14.9253 12.5568C13.1618 10.7939 11.1406 12.5123 11.0557 12.5861C10.9448 12.6829 10.8025 12.7361 10.6553 12.7357Z" fill="#333333"/>
</svg>
