<svg width="26" height="26" viewBox="0 0 26 26" fill="none" xmlns="http://www.w3.org/2000/svg">
<path d="M11.3596 4.93382C8.22727 4.93382 4.85589 4.16185 4.85589 2.46662C4.85589 0.771399 8.22727 0 11.3596 0C14.492 0 17.8616 0.771976 17.8616 2.46662C17.8616 4.16127 14.4926 4.93382 11.3596 4.93382ZM11.3596 1.15479C7.88488 1.15479 6.01067 2.08554 6.01067 2.46662C6.01067 2.8477 7.88488 3.77904 11.3596 3.77904C14.8344 3.77904 16.7069 2.8477 16.7069 2.46662C16.7069 2.08554 14.8332 1.15479 11.3596 1.15479Z" fill="#333333"/>
<path d="M13.28 24.9139H12.1252V15.6566C12.1054 15.4549 12.0219 15.2648 11.8868 15.1138L11.5513 14.8067C11.5406 14.8009 11.5286 14.7978 11.5164 14.7978C11.5042 14.7978 11.4922 14.8009 11.4814 14.8067L11.1448 15.115C11.01 15.2659 10.9267 15.4558 10.9069 15.6572V24.9145H9.75216V15.6566C9.77167 15.1314 9.99052 14.6334 10.3642 14.2639L10.7008 13.9556C10.924 13.7527 11.2148 13.6403 11.5164 13.6403C11.818 13.6403 12.1088 13.7527 12.332 13.9556L12.6674 14.2628C13.0414 14.6324 13.2604 15.1306 13.28 15.656V24.9139Z" fill="#333333"/>
<path d="M15.5896 24.9139H14.4348V15.6566C14.415 15.4549 14.3315 15.2648 14.1964 15.1138L13.8609 14.8067C13.8502 14.8009 13.8381 14.7978 13.8259 14.7978C13.8137 14.7978 13.8017 14.8009 13.791 14.8067L13.4544 15.115C13.3196 15.2659 13.2363 15.4558 13.2165 15.6572V24.9145H12.0617V15.6566C12.0812 15.1314 12.3001 14.6334 12.6738 14.2639L13.0104 13.9556C13.2336 13.7527 13.5243 13.6403 13.8259 13.6403C14.1275 13.6403 14.4183 13.7527 14.6415 13.9556L14.977 14.2628C15.351 14.6324 15.57 15.1306 15.5896 15.656V24.9139Z" fill="#333333"/>
<path d="M10.9705 24.9139H9.81567V15.6566C9.79585 15.4549 9.71235 15.2648 9.57723 15.1138L9.24177 14.8067C9.23104 14.8009 9.21901 14.7978 9.20681 14.7978C9.19461 14.7978 9.18261 14.8009 9.17189 14.8067L8.83526 15.115C8.70046 15.2659 8.61716 15.4558 8.59738 15.6572V24.9145H7.4426V15.6566C7.4621 15.1314 7.68096 14.6334 8.05463 14.2639L8.39126 13.9556C8.61444 13.7527 8.9052 13.6403 9.20681 13.6403C9.50841 13.6403 9.79921 13.7527 10.0224 13.9556L10.3579 14.2628C10.7318 14.6324 10.9509 15.1306 10.9705 15.656V24.9139Z" fill="#333333"/>
<path d="M8.66089 24.9139H7.50611V15.6566C7.48629 15.4549 7.40278 15.2648 7.26767 15.1138L6.9322 14.8066C6.92148 14.8008 6.90944 14.7978 6.89724 14.7978C6.88505 14.7978 6.87305 14.8008 6.86232 14.8066L6.5257 15.115C6.3648 15.2886 6.25282 15.5018 6.20119 15.7328L5.75201 19.2145L4.60586 19.0666L5.05681 15.578C5.14413 15.0793 5.38471 14.6202 5.74507 14.2645L6.08169 13.9562C6.30488 13.7533 6.59564 13.6409 6.89724 13.6409C7.19885 13.6409 7.48965 13.7533 7.71283 13.9562L8.0483 14.2633C8.42227 14.6329 8.64132 15.1312 8.66089 15.6566V24.9139Z" fill="#333333"/>
<path d="M15.5261 24.9139H14.3713V15.6566C14.3908 15.1314 14.6097 14.6334 14.9833 14.2639L15.32 13.9556C15.5432 13.7527 15.8339 13.6403 16.1355 13.6403C16.4371 13.6403 16.7279 13.7527 16.9511 13.9556L17.2866 14.2628C17.6605 14.6324 17.8796 15.1306 17.8992 15.656L18.1111 19.0719L16.9563 19.1429L16.7432 15.6918C16.7294 15.4781 16.6451 15.2751 16.5036 15.1144L16.1682 14.8072C16.1574 14.8014 16.1454 14.7984 16.1332 14.7984C16.121 14.7984 16.109 14.8014 16.0983 14.8072L15.7617 15.1156C15.6269 15.2665 15.5436 15.4564 15.5238 15.6577L15.5261 24.9139Z" fill="#333333"/>
<path d="M11.4803 26H11.1697C7.85948 26 4.30331 25.2136 4.13298 23.4906C4.00133 23.1685 3.87662 22.8312 3.75998 22.4865C3.71113 22.3411 3.72207 22.1822 3.7904 22.0447C3.85872 21.9073 3.97883 21.8027 4.12431 21.7538C4.26978 21.705 4.42872 21.7159 4.56613 21.7843C4.70354 21.8526 4.80816 21.9727 4.85701 22.1182C4.97537 22.4704 5.10416 22.8139 5.23927 23.139C5.26822 23.2093 5.28312 23.2847 5.28314 23.3607C5.28314 23.8047 7.2867 24.8452 11.1726 24.8452H11.4832C15.3679 24.8452 17.3726 23.8059 17.3726 23.3607C17.3726 23.2847 17.3875 23.2093 17.4165 23.139C17.5516 22.8139 17.6803 22.4704 17.7987 22.1182C17.8229 22.0461 17.861 21.9796 17.9109 21.9223C17.9608 21.865 18.0216 21.8181 18.0896 21.7843C18.1576 21.7504 18.2317 21.7303 18.3075 21.7251C18.3833 21.7199 18.4594 21.7297 18.5314 21.7538C18.6035 21.778 18.67 21.8162 18.7273 21.8661C18.7846 21.916 18.8315 21.9767 18.8653 22.0447C18.8992 22.1128 18.9193 22.1868 18.9245 22.2626C18.9297 22.3384 18.9199 22.4145 18.8958 22.4865C18.7803 22.833 18.6544 23.1685 18.5228 23.4906C18.3467 25.2136 14.7905 26 11.4803 26Z" fill="#333333"/>
<path d="M11.325 25.1224C8.14065 25.1224 3.73051 24.1408 3.73051 22.3024C3.73043 22.1951 3.76021 22.0899 3.81654 21.9987C4.70977 20.5552 4.85876 16.4724 4.84086 15.0209V2.41177C4.84086 2.25864 4.90167 2.11178 5.00995 2.0035C5.11823 1.89521 5.26512 1.83438 5.41825 1.83438C5.57139 1.83438 5.71824 1.89521 5.82652 2.0035C5.93481 2.11178 5.99565 2.25864 5.99565 2.41177V15.014C5.99565 15.2264 6.04585 20.2347 4.91878 22.3942C5.24039 22.9179 7.76535 23.9676 11.3279 23.9676C15.1098 23.9676 17.7237 22.7822 17.7675 22.3018C17.7784 22.1504 17.847 22.0089 17.9592 21.9065C18.0713 21.8041 18.2185 21.7486 18.3703 21.7516C18.5163 21.7525 18.6559 21.8107 18.7592 21.9138C18.8625 22.0169 18.9211 22.1565 18.9223 22.3024C18.9194 24.1408 14.5093 25.1224 11.325 25.1224Z" fill="#333333"/>
<path d="M18.4101 22.8798C18.3117 22.8798 18.2149 22.8547 18.1289 22.8068C18.0429 22.7589 17.9706 22.6898 17.9188 22.6061C16.6681 20.5852 16.7196 15.2334 16.7224 15.007V2.41177C16.7224 2.25864 16.7833 2.11178 16.8915 2.0035C16.9998 1.89521 17.1467 1.83438 17.2998 1.83438C17.453 1.83438 17.5998 1.89521 17.7081 2.0035C17.8164 2.11178 17.8772 2.25864 17.8772 2.41177V15.014C17.8593 16.473 18.0088 20.5569 18.9009 22.0004C18.955 22.0879 18.9848 22.1881 18.9871 22.2909C18.9895 22.3937 18.9643 22.4953 18.9143 22.5851C18.8642 22.6749 18.7911 22.7497 18.7025 22.8018C18.6139 22.854 18.513 22.8815 18.4101 22.8815V22.8798Z" fill="#333333"/>
<path d="M17.8356 6.37267L21.6811 6.54589H21.7255C21.8775 6.55353 22.0203 6.62082 22.1229 6.73316C22.2255 6.84549 22.2796 6.99379 22.2735 7.14581V7.17179L21.6782 13.7858C21.6663 13.9168 21.6086 14.0395 21.5154 14.1323L21.5102 14.1375L18.0337 17.6087C17.9746 17.6677 17.9044 17.7145 17.8273 17.7464C17.7501 17.7783 17.6674 17.7946 17.5839 17.7946C17.5004 17.7945 17.4177 17.7779 17.3406 17.7459C17.2635 17.7139 17.1934 17.667 17.1344 17.6079C17.0754 17.5488 17.0286 17.4786 16.9968 17.4014C16.9649 17.3243 16.9485 17.2416 16.9486 17.1581C16.9487 17.0745 16.9652 16.9919 16.9972 16.9147C17.0293 16.8376 17.0762 16.7676 17.1353 16.7086L17.1497 16.6947L20.7296 13.3337L20.5615 13.6871L21.121 7.06959L21.7105 7.69664L17.8795 8.0679C17.7682 8.07875 17.6558 8.06755 17.5487 8.03495C17.4417 8.00236 17.3422 7.949 17.2558 7.87793C17.1694 7.80687 17.0978 7.71948 17.0452 7.62076C16.9926 7.52204 16.9599 7.41392 16.949 7.30257C16.9382 7.19122 16.9494 7.07882 16.982 6.9718C17.0146 6.86478 17.068 6.76523 17.139 6.67882C17.2101 6.59242 17.2975 6.52087 17.3962 6.46824C17.4949 6.41561 17.603 6.38294 17.7144 6.37209C17.7548 6.36968 17.7953 6.36988 17.8356 6.37267Z" fill="#333333"/>
<path d="M15.2963 13.011C15.1431 13.011 14.9963 12.9501 14.888 12.8419C14.7797 12.7336 14.7189 12.5867 14.7189 12.4336V5.83745C14.7189 5.68431 14.7797 5.53745 14.888 5.42917C14.9963 5.32089 15.1431 5.26006 15.2963 5.26006C15.4494 5.26006 15.5963 5.32089 15.7045 5.42917C15.8128 5.53745 15.8737 5.68431 15.8737 5.83745V12.4336C15.8737 12.5867 15.8128 12.7336 15.7045 12.8419C15.5963 12.9501 15.4494 13.011 15.2963 13.011Z" fill="#333333"/>
</svg>
