<svg width="18" height="18" viewBox="0 0 18 18" fill="none" xmlns="http://www.w3.org/2000/svg">
<path fill-rule="evenodd" clip-rule="evenodd" d="M0.875 9C0.875 3.57088 3.39025 0.875 9 0.875C14.6097 0.875 17.125 3.57088 17.125 9C17.125 14.4291 14.6097 17.125 9 17.125C3.39025 17.125 0.875 14.4291 0.875 9ZM15.875 9C15.875 4.24261 13.8993 2.125 9 2.125C4.10072 2.125 2.125 4.24261 2.125 9C2.125 13.7574 4.10072 15.875 9 15.875C13.8993 15.875 15.875 13.7574 15.875 9Z" fill="#070605"/>
<path d="M9 4.0625C9.28676 4.0625 9.52341 4.27709 9.55812 4.55444L9.5625 4.625V8.71933C9.5625 8.73124 9.56589 8.74276 9.57211 8.75263L9.58348 8.76605L12.1862 11.0796C12.4184 11.286 12.4393 11.6415 12.2329 11.8737C12.0437 12.0865 11.7292 12.1219 11.4993 11.9673L11.4388 11.9204L8.83607 9.60688C8.61072 9.40657 8.47107 9.1291 8.44282 8.83169L8.4375 8.71933V4.625C8.4375 4.31434 8.68934 4.0625 9 4.0625Z" fill="#070605"/>
</svg>
