<svg width="24" height="24" viewBox="0 0 24 24" fill="none" xmlns="http://www.w3.org/2000/svg">
<rect opacity="0.01" width="24" height="24" fill="white"/>
<path fill-rule="evenodd" clip-rule="evenodd" d="M21.75 7.5C21.75 7.08579 21.4142 6.75 21 6.75H3L2.91253 6.75505C2.53953 6.79837 2.25 7.11537 2.25 7.5C2.25 7.91421 2.58579 8.25 3 8.25H21L21.0875 8.24495C21.4605 8.20163 21.75 7.88463 21.75 7.5ZM17.75 16.5C17.75 16.0858 17.4142 15.75 17 15.75H3L2.91253 15.755C2.53953 15.7984 2.25 16.1154 2.25 16.5C2.25 16.9142 2.58579 17.25 3 17.25H17L17.0875 17.245C17.4605 17.2016 17.75 16.8846 17.75 16.5Z" fill="#403C35"/>
</svg>
