<svg width="24" height="24" viewBox="0 0 24 24" fill="none" xmlns="http://www.w3.org/2000/svg">
<rect opacity="0.01" width="24" height="24" fill="#F56041"/>
<path d="M11.4913 3.9489C11.7957 3.66795 12.2701 3.68693 12.5511 3.99129C12.8104 4.27225 12.8142 4.69816 12.5739 4.983L12.5087 5.05111L5.00499 11.8622C4.94159 11.9208 4.92772 12.0129 4.96551 12.086L4.9944 12.1272L12.5087 18.9489C12.8131 19.2299 12.8321 19.7043 12.5511 20.0087C12.2918 20.2897 11.8675 20.3275 11.5644 20.1106L11.4913 20.0511L3.98757 13.24L3.89219 13.1446C3.29015 12.4924 3.30022 11.493 3.89411 10.8532L3.98757 10.76L11.4913 3.9489Z" fill="#070605"/>
</svg>
