<svg width="20" height="20" viewBox="0 0 20 20" fill="none" xmlns="http://www.w3.org/2000/svg">
<rect width="360" height="800" transform="translate(-197 -112)" fill="white"/>
<rect opacity="0.01" width="20" height="20" fill="#F56041"/>
<path fill-rule="evenodd" clip-rule="evenodd" d="M1.875 10C1.875 4.57088 4.39025 1.875 10 1.875C15.6097 1.875 18.125 4.57088 18.125 10C18.125 15.4291 15.6097 18.125 10 18.125C4.39025 18.125 1.875 15.4291 1.875 10ZM16.875 10C16.875 5.24261 14.8993 3.125 10 3.125C5.10072 3.125 3.125 5.24261 3.125 10C3.125 14.7574 5.10072 16.875 10 16.875C14.8993 16.875 16.875 14.7574 16.875 10Z" fill="#070605"/>
<path d="M10 5.0625C10.2868 5.0625 10.5234 5.27709 10.5581 5.55444L10.5625 5.625V9.71933C10.5625 9.73124 10.5659 9.74276 10.5721 9.75263L10.5835 9.76605L13.1862 12.0796C13.4184 12.286 13.4393 12.6415 13.2329 12.8737C13.0437 13.0865 12.7292 13.1219 12.4993 12.9673L12.4388 12.9204L9.83607 10.6069C9.61072 10.4066 9.47107 10.1291 9.44282 9.83169L9.4375 9.71933V5.625C9.4375 5.31434 9.68934 5.0625 10 5.0625Z" fill="#070605"/>
</svg>
