<svg width="38" height="38" viewBox="0 0 38 38" fill="none" xmlns="http://www.w3.org/2000/svg">
<rect opacity="0.01" width="38" height="38" fill="#F56041"/>
<path fill-rule="evenodd" clip-rule="evenodd" d="M5.34375 7.71875C5.34375 4.76748 7.73622 2.375 10.6875 2.375C13.6388 2.375 16.0312 4.76748 16.0312 7.71875C16.0312 10.67 13.6388 13.0625 10.6875 13.0625C7.73622 13.0625 5.34375 10.67 5.34375 7.71875ZM13.6562 7.71875C13.6562 6.07915 12.3271 4.75 10.6875 4.75C9.0479 4.75 7.71875 6.07915 7.71875 7.71875C7.71875 9.35835 9.0479 10.6875 10.6875 10.6875C12.3271 10.6875 13.6562 9.35835 13.6562 7.71875ZM27.3125 2.375C24.3612 2.375 21.9687 4.76748 21.9687 7.71875C21.9687 10.67 24.3612 13.0625 27.3125 13.0625C30.2638 13.0625 32.6562 10.67 32.6562 7.71875C32.6562 4.76748 30.2638 2.375 27.3125 2.375ZM27.3125 4.75C28.9521 4.75 30.2812 6.07915 30.2812 7.71875C30.2812 9.35835 28.9521 10.6875 27.3125 10.6875C25.6729 10.6875 24.3437 9.35835 24.3437 7.71875C24.3437 6.07915 25.6729 4.75 27.3125 4.75ZM24.5561 16.7561L19.2885 29.9252C19.0921 30.4161 18.9912 30.94 18.9912 31.4688C18.9912 33.7642 20.852 35.625 23.1474 35.625H31.4776C32.0063 35.625 32.5302 35.5241 33.0211 35.3277C35.1524 34.4752 36.189 32.0564 35.3365 29.9252L30.0689 16.7561C29.7672 16.0017 29.1694 15.404 28.4151 15.1022C26.8927 14.4933 25.165 15.2338 24.5561 16.7561ZM27.533 17.3074C27.6839 17.3677 27.8034 17.4873 27.8638 17.6382L33.1314 30.8072C33.4968 31.7206 33.0525 32.7572 32.1391 33.1226C31.9287 33.2068 31.7042 33.25 31.4776 33.25H23.1474C22.1637 33.25 21.3662 32.4525 21.3662 31.4688C21.3662 31.2421 21.4094 31.0176 21.4936 30.8072L26.7612 17.6382C26.883 17.3337 27.2285 17.1856 27.533 17.3074ZM14.8526 14.25H6.52244C4.227 14.25 2.36619 16.1108 2.36619 18.4062C2.36619 18.935 2.46708 19.4589 2.66346 19.9498L8.48236 34.4971C8.96951 35.715 10.3517 36.3073 11.5695 35.8202C12.173 35.5788 12.6512 35.1006 12.8926 34.4971L18.7115 19.9498C19.564 17.8186 18.5274 15.3998 16.3961 14.5473C15.9052 14.3509 15.3813 14.25 14.8526 14.25ZM6.52244 16.625H14.8526C15.0792 16.625 15.3037 16.6682 15.5141 16.7524C16.4275 17.1178 16.8718 18.1544 16.5064 19.0678L10.6875 33.6151L4.86859 19.0678C4.78443 18.8574 4.74119 18.6329 4.74119 18.4062C4.74119 17.4225 5.53868 16.625 6.52244 16.625Z" fill="#070605"/>
</svg>
