<svg width="175" height="175" viewBox="0 0 175 175" fill="none" xmlns="http://www.w3.org/2000/svg">
<path d="M170.615 108.684C156.651 141.139 124.7 174.067 88.0158 174.067C45.4146 170.75 1.86667 131.189 1.86667 89.4958C1.86667 36.4317 53.6982 3.26666 96.0627 3.26666C132.51 3.26666 188.554 66.9909 170.615 108.684Z" fill="#BABABA" fill-opacity="0.5"/>
<path d="M166.833 104.767C153.067 136.733 121.567 169.167 85.4 169.167C43.4 165.9 0.466667 126.933 0.466667 85.8667C0.466667 33.6 51.5667 0.933334 93.3333 0.933334C132.767 0.933334 184.519 63.7 166.833 104.767Z" fill="url(#paint0_radial_123_2042)"/>
<path d="M91.4667 23.778C91.4667 37.3997 82.7406 51.2451 57.8091 51.2451C28.9333 56.7 18.6667 64.8668 18.6667 51.2451C25.1489 38.3523 24.4009 24.9806 44.3461 12.9288C62.1339 2.18047 91.4667 10.1563 91.4667 23.778Z" fill="url(#paint1_radial_123_2042)"/>
<defs>
<radialGradient id="paint0_radial_123_2042" cx="0" cy="0" r="1" gradientUnits="userSpaceOnUse" gradientTransform="translate(104.533 103.6) rotate(-125.906) scale(105.435 106.398)">
<stop stop-color="white"/>
<stop offset="0.942708" stop-color="#CCA5F5"/>
<stop offset="1" stop-color="#BDA0F5"/>
</radialGradient>
<radialGradient id="paint1_radial_123_2042" cx="0" cy="0" r="1" gradientUnits="userSpaceOnUse" gradientTransform="translate(52.5735 36.1886) rotate(70.527) scale(15.7055 27.2062)">
<stop stop-color="white" stop-opacity="0.9"/>
<stop offset="1" stop-color="white" stop-opacity="0"/>
</radialGradient>
</defs>
</svg>
