<svg width="26" height="26" viewBox="0 0 26 26" fill="none" xmlns="http://www.w3.org/2000/svg">
<g clip-path="url(#clip0_38_728)">
<path d="M11.4517 13.867L11.3991 13.0239C11.3812 12.7384 11.1343 12.5206 10.8499 12.5393C10.5643 12.5571 10.3474 12.803 10.3653 13.0885L10.4179 13.9316C10.4351 14.2062 10.663 14.4173 10.9344 14.4173C10.9452 14.4173 10.9562 14.417 10.9672 14.4163C11.2526 14.3985 11.4696 14.1525 11.4517 13.867Z" fill="black"/>
<path d="M12.0176 22.9196L11.5818 15.9481C11.564 15.6626 11.3191 15.446 11.0326 15.4635C10.7471 15.4814 10.5302 15.7273 10.5481 16.0127L10.9838 22.9842C11.001 23.2587 11.2289 23.4698 11.5003 23.4698C11.5111 23.4698 11.5221 23.4695 11.5331 23.4688C11.8185 23.4509 12.0355 23.205 12.0176 22.9196Z" fill="black"/>
<path d="M15.1314 12.5393C14.8448 12.5207 14.6 12.7385 14.5822 13.0239L13.9637 22.9196C13.9459 23.2051 14.1629 23.4509 14.4483 23.4688C14.4593 23.4695 14.4702 23.4698 14.4811 23.4698C14.7524 23.4698 14.9804 23.2586 14.9976 22.9842L15.616 13.0885C15.6339 12.803 15.4169 12.5572 15.1314 12.5393Z" fill="black"/>
<path d="M19.8775 4.72392C19.7792 4.61581 19.6401 4.55426 19.4941 4.55426H17.9017L15.1452 1.7978C14.9429 1.59559 14.615 1.59559 14.4127 1.7978L13.2889 2.92149L10.5191 0.151628C10.3168 -0.0505833 9.98893 -0.0505833 9.78656 0.151628L6.64569 3.2925C6.44343 3.49476 6.44343 3.82271 6.64569 4.02502L7.17498 4.55431H6.50594C6.36025 4.55431 6.22136 4.61571 6.1232 4.72331C6.02499 4.83092 5.9768 4.97493 5.99026 5.12001L6.15164 6.86298L6.47202 10.3225C6.47994 10.4084 6.50924 10.491 6.55723 10.5626L6.59527 10.6196C6.85202 11.0038 7.00624 11.4505 7.04128 11.9112L8.07676 25.5214C8.09727 25.7914 8.32234 26 8.5932 26H17.3882C17.659 26 17.8841 25.7914 17.9047 25.5214L18.9401 11.9112C18.9752 11.4505 19.1294 11.0038 19.3863 10.6195L19.4244 10.5624C19.4719 10.4913 19.501 10.4095 19.5092 10.3243L19.8421 6.86481L20.0097 5.12184C20.0236 4.97646 19.9756 4.83193 19.8775 4.72392ZM14.7789 2.89651L16.4367 4.55426H13.1307L14.7789 2.89651ZM16.902 5.5901L16.1949 6.29723H13.3629L12.6558 5.5901H16.902ZM15.159 7.33306L14.7789 7.71321L14.3988 7.33306H15.159ZM10.1528 1.25038L12.5564 3.65396L11.6561 4.55421H8.63992L7.74444 3.65873L10.1528 1.25038ZM11.898 6.29728H11.3876L11.6428 6.0421L11.898 6.29728ZM10.6298 5.5901L10.1528 6.06708L9.67586 5.5901H10.6298ZM7.07403 5.5901H8.21082L8.918 6.29723H7.13954L7.07403 5.5901ZM18.4904 10.0965C18.1555 10.6165 17.9541 11.2154 17.9072 11.8326L16.9081 24.9642H9.07314L8.07412 11.8326C8.0272 11.2158 7.82605 10.6173 7.49145 10.0973L7.23551 7.33316H12.5784H12.9339L14.4127 8.81201C14.615 9.01433 14.9429 9.01433 15.1453 8.81201L16.6241 7.33316H16.9078H18.7563L18.4904 10.0965ZM18.8559 6.29723H17.6599L18.3451 5.59985C18.347 5.59721 18.3491 5.59472 18.3508 5.59203C18.3512 5.59142 18.3518 5.59076 18.3522 5.5901H18.9239L18.8559 6.29723Z" fill="black"/>
</g>
<defs>
<clipPath id="clip0_38_728">
<rect width="26" height="26" fill="white"/>
</clipPath>
</defs>
</svg>
