<svg width="26" height="26" viewBox="0 0 26 26" fill="none" xmlns="http://www.w3.org/2000/svg">
<g clip-path="url(#clip0_38_705)">
<path d="M21.2727 8.86361H20.6818V6.49999C20.6818 6.14544 20.4454 5.9091 20.0909 5.9091H13.5909C13.2364 5.9091 13.0001 6.14549 13.0001 6.49999C13.0001 6.8545 13.2364 7.09088 13.5909 7.09088H19.5V16.5454C19.5 16.9 19.7364 17.1363 20.0909 17.1363H21.2727C23.5773 17.1363 25.4091 15.3045 25.4091 12.9999C25.4091 10.6954 23.5773 8.86361 21.2727 8.86361ZM21.2727 15.9545H20.6818V10.0454H21.2727C22.9273 10.0454 24.2273 11.3454 24.2273 13C24.2273 14.6545 22.9273 15.9545 21.2727 15.9545Z" fill="black"/>
<path d="M15.9546 0C15.6 0 15.3637 0.236387 15.3637 0.590891C15.3637 0.945395 15.1273 1.18178 14.7728 1.18178C13.7682 1.18183 13 1.95 13 2.95455C13 3.30911 12.7636 3.54545 12.4091 3.54545C12.0546 3.54545 11.8182 3.78183 11.8182 4.13634C11.8182 4.49084 12.0546 4.72723 12.4091 4.72723C13.4137 4.72723 14.1818 3.95906 14.1818 2.9545C14.1818 2.59995 14.4182 2.36361 14.7727 2.36361C15.7773 2.36361 16.5454 1.59545 16.5454 0.590891C16.5454 0.236387 16.3091 0 15.9546 0Z" fill="black"/>
<path d="M18.3182 1.18184C17.9636 1.18184 17.7273 1.41823 17.7273 1.77273C17.7273 2.12728 17.4909 2.36362 17.1364 2.36362C16.1318 2.36362 15.3637 3.13179 15.3637 4.13634C15.3637 4.4909 15.6001 4.72723 15.9546 4.72723C16.3091 4.72723 16.5454 4.49085 16.5454 4.13634C16.5454 3.78184 16.7818 3.54545 17.1363 3.54545C18.1409 3.54545 18.9091 2.77728 18.9091 1.77273C18.9091 1.41817 18.6727 1.18184 18.3182 1.18184Z" fill="black"/>
<path d="M11.8182 1.18184C11.4636 1.18184 11.2273 1.41823 11.2273 1.77273C11.2273 2.12728 10.9909 2.36362 10.6364 2.36362C9.63183 2.36362 8.86366 3.13179 8.86366 4.13634C8.86366 4.4909 9.10005 4.72723 9.45455 4.72723C9.80906 4.72723 10.0454 4.49085 10.0454 4.13634C10.0454 3.78184 10.2818 3.54545 10.6363 3.54545C11.6409 3.54545 12.4091 2.77728 12.4091 1.77273C12.4091 1.41817 12.1727 1.18184 11.8182 1.18184Z" fill="black"/>
<path d="M24.2273 20.0909H20.6818V18.9091C20.6818 18.5545 20.4454 18.3182 20.0909 18.3182C19.7364 18.3182 19.5001 18.5545 19.5001 18.9091V20.0909H6.5V7.09088H10.6364V10.6363H10.0455C9.69094 10.6363 9.45461 10.8727 9.45461 11.2272V14.7727C9.45461 15.1272 9.69099 15.3636 10.0455 15.3636H12.4091C12.7637 15.3636 13 15.1272 13 14.7727V11.2272C13 10.8727 12.7636 10.6363 12.4091 10.6363H11.8182V6.49999C11.8182 6.14544 11.5818 5.9091 11.2273 5.9091H5.90911C5.55455 5.9091 5.31822 6.14549 5.31822 6.49999V20.0909H1.77272C0.768168 20.0909 0 20.8591 0 21.8636C0 22.8682 0.768168 23.6363 1.77272 23.6363H2.06817L3.30906 25.2909C3.66361 25.7636 4.19545 26 4.72728 26H21.2727C21.8046 26 22.3363 25.7636 22.6909 25.2909L23.9318 23.6363H24.2272C25.2318 23.6363 25.9999 22.8682 25.9999 21.8636C26 20.8591 25.2318 20.0909 24.2273 20.0909ZM11.8182 11.8182V14.1818H10.6363V11.8182H11.8182ZM24.2273 22.4545H23.6364C23.4591 22.4545 23.2818 22.5137 23.1637 22.6909L21.7455 24.5818C21.6273 24.7591 21.4501 24.8182 21.2728 24.8182H4.72728C4.55 24.8182 4.37272 24.7591 4.25455 24.5818L3.54545 23.6364H20.6818C21.0364 23.6364 21.2727 23.4 21.2727 23.0455C21.2727 22.691 21.0363 22.4546 20.6818 22.4546H2.36361H1.77272C1.41817 22.4546 1.18183 22.2182 1.18183 21.8637C1.18183 21.5092 1.41822 21.2728 1.77272 21.2728H24.2273C24.5818 21.2728 24.8182 21.5092 24.8182 21.8637C24.8182 22.2182 24.5818 22.4545 24.2273 22.4545Z" fill="black"/>
</g>
<defs>
<clipPath id="clip0_38_705">
<rect width="26" height="26" fill="white"/>
</clipPath>
</defs>
</svg>
