<svg width="25" height="25" viewBox="0 0 25 25" fill="none" xmlns="http://www.w3.org/2000/svg">
<path fill-rule="evenodd" clip-rule="evenodd" d="M12.5001 1.30212C9.76748 1.30212 7.55222 3.51738 7.55222 6.25004C7.55222 8.9827 9.76748 11.198 12.5001 11.198C15.2328 11.198 17.448 8.9827 17.448 6.25004C17.448 3.51738 15.2328 1.30212 12.5001 1.30212ZM9.11471 6.25004C9.11471 4.38032 10.6304 2.86462 12.5001 2.86462C14.3699 2.86462 15.8855 4.38032 15.8855 6.25004C15.8855 8.11976 14.3699 9.63546 12.5001 9.63546C10.6304 9.63546 9.11471 8.11976 9.11471 6.25004Z" fill="#A19D96"/>
<path fill-rule="evenodd" clip-rule="evenodd" d="M12.5001 12.7604C10.0902 12.7604 7.86986 13.3082 6.22457 14.2336C4.60377 15.1454 3.38555 16.5271 3.38555 18.2291L3.38549 18.3354C3.38432 19.5456 3.38284 21.0645 4.71516 22.1494C5.37086 22.6834 6.28814 23.0631 7.52744 23.314C8.77021 23.5655 10.39 23.6979 12.5001 23.6979C14.6103 23.6979 16.2301 23.5655 17.4728 23.314C18.7122 23.0631 19.6295 22.6834 20.2851 22.1494C21.6174 21.0645 21.6159 19.5456 21.6148 18.3354L21.6147 18.2291C21.6147 16.5271 20.3966 15.1454 18.7757 14.2336C17.1304 13.3082 14.9101 12.7604 12.5001 12.7604ZM4.94806 18.2291C4.94806 17.3424 5.59533 16.3803 6.99061 15.5955C8.36139 14.8244 10.3077 14.3229 12.5001 14.3229C14.6926 14.3229 16.6389 14.8244 18.0097 15.5955C19.405 16.3803 20.0522 17.3424 20.0522 18.2291C20.0522 19.5914 20.0102 20.3583 19.2984 20.9379C18.9125 21.2523 18.2673 21.559 17.1628 21.7826C16.0619 22.0054 14.5567 22.1354 12.5001 22.1354C10.4436 22.1354 8.93841 22.0054 7.83743 21.7826C6.73298 21.559 6.08776 21.2523 5.70179 20.9379C4.99006 20.3583 4.94806 19.5914 4.94806 18.2291Z" fill="#A19D96"/>
</svg>
