<svg width="57" height="57" viewBox="0 0 57 57" fill="none" xmlns="http://www.w3.org/2000/svg">
<path fill-rule="evenodd" clip-rule="evenodd" d="M28.5002 2.96875C22.2698 2.96875 17.2191 8.01954 17.2191 14.25C17.2191 20.4805 22.2698 25.5312 28.5002 25.5312C34.7308 25.5312 39.7815 20.4805 39.7815 14.25C39.7815 8.01954 34.7308 2.96875 28.5002 2.96875ZM20.7816 14.25C20.7816 9.98704 24.2373 6.53125 28.5002 6.53125C32.7634 6.53125 36.219 9.98704 36.219 14.25C36.219 18.513 32.7634 21.9688 28.5002 21.9688C24.2373 21.9688 20.7816 18.513 20.7816 14.25Z" fill="#1C274C"/>
<path fill-rule="evenodd" clip-rule="evenodd" d="M28.5002 29.0938C23.0056 29.0938 17.9433 30.3428 14.192 32.4527C10.4966 34.5315 7.71905 37.682 7.71905 41.5625L7.71891 41.8047C7.71623 44.564 7.71285 48.0273 10.7506 50.5008C12.2455 51.7182 14.3369 52.5839 17.1626 53.1561C19.9961 53.7294 23.6891 54.0312 28.5002 54.0312C33.3115 54.0312 37.0046 53.7294 39.838 53.1561C42.6638 52.5839 44.7552 51.7182 46.25 50.5008C49.2877 48.0273 49.2843 44.564 49.2817 41.8047L49.2815 41.5625C49.2815 37.682 46.5042 34.5315 42.8087 32.4527C39.0573 30.3428 33.995 29.0938 28.5002 29.0938ZM11.2816 41.5625C11.2816 39.5407 12.7573 37.3471 15.9386 35.5578C19.064 33.7998 23.5016 32.6562 28.5002 32.6562C33.4991 32.6562 37.9366 33.7998 41.0621 35.5578C44.2434 37.3471 45.719 39.5407 45.719 41.5625C45.719 44.6685 45.6233 46.417 44.0004 47.7385C43.1205 48.4552 41.6494 49.1547 39.1312 49.6643C36.6211 50.1724 33.1892 50.4688 28.5002 50.4688C23.8115 50.4688 20.3796 50.1724 17.8693 49.6643C15.3512 49.1547 13.8801 48.4552 13.0001 47.7385C11.3773 46.417 11.2816 44.6685 11.2816 41.5625Z" fill="#1C274C"/>
</svg>
