<svg width="40" height="40" viewBox="0 0 40 40" fill="none" xmlns="http://www.w3.org/2000/svg">
<rect width="36" height="36" transform="translate(2 2)" fill="white"/>
<path fill-rule="evenodd" clip-rule="evenodd" d="M3.93263 3.34945C4.15953 2.97716 4.56402 2.75 5 2.75H30C30.6904 2.75 31.25 3.30964 31.25 4V9.53788H36C36.3657 9.53788 36.7131 9.69806 36.9506 9.97619C37.1881 10.2543 37.2919 10.6225 37.2346 10.9837L35.2346 23.5898C35.1382 24.197 34.6147 24.6439 34 24.6439H31.25V36C31.25 36.6904 30.6904 37.25 30 37.25H7C6.30965 37.25 5.75 36.6904 5.75 36V8.18208L3.889 4.57286C3.68919 4.18536 3.70572 3.72174 3.93263 3.34945ZM31.25 22.1439H32.9327L34.536 12.0379H31.25V22.1439ZM7.05092 5.25L8.111 7.30593C8.20234 7.48307 8.25 7.67948 8.25 7.87879V11.4773H12.5C13.1904 11.4773 13.75 12.0369 13.75 12.7273C13.75 13.4176 13.1904 13.9773 12.5 13.9773H8.25V17.2955H12.5C13.1904 17.2955 13.75 17.8551 13.75 18.5455C13.75 19.2358 13.1904 19.7955 12.5 19.7955H8.25V23.1136H12.5C13.1904 23.1136 13.75 23.6733 13.75 24.3636C13.75 25.054 13.1904 25.6136 12.5 25.6136H8.25V28.9318H12.5C13.1904 28.9318 13.75 29.4915 13.75 30.1818C13.75 30.8722 13.1904 31.4318 12.5 31.4318H8.25V34.75H28.75V5.25H7.05092Z" fill="black"/>
</svg>
